<?xml version="1.0" encoding="utf-8"?>
<!-- Generator: Adobe Illustrator 16.0.0, SVG Export Plug-In . SVG Version: 6.00 Build 0)  -->
<!DOCTYPE svg PUBLIC "-//W3C//DTD SVG 1.1//EN" "http://www.w3.org/Graphics/SVG/1.1/DTD/svg11.dtd">
<svg version="1.1" id="レイヤー_1" xmlns="http://www.w3.org/2000/svg" xmlns:xlink="http://www.w3.org/1999/xlink" x="0px"
	 y="0px" width="128.833px" height="43.5px" viewBox="-28 -1 128.833 43.5" enable-background="new -28 -1 128.833 43.5"
	 xml:space="preserve">
<g>
	<path fill="#231815" d="M5.223,27.585h3.292V7.302H5.223V6.887h16.962v5.13h-0.326c-0.257-0.771-0.534-1.448-0.831-2.031
		c-0.296-0.583-0.652-1.077-1.067-1.482c-0.415-0.405-0.91-0.707-1.483-0.905c-0.573-0.197-1.265-0.296-2.076-0.296H11.48v9.608
		h1.928c0.652,0,1.206-0.06,1.66-0.178c0.455-0.118,0.845-0.341,1.171-0.667c0.326-0.326,0.603-0.771,0.831-1.334
		c0.227-0.563,0.449-1.29,0.667-2.18h0.326v9.223h-0.326c-0.139-0.572-0.282-1.127-0.43-1.661c-0.148-0.534-0.356-1.008-0.623-1.423
		c-0.267-0.416-0.623-0.746-1.067-0.994c-0.445-0.247-1.023-0.371-1.735-0.371H11.48v10.259h3.292V28H5.223V27.585z"/>
	<path fill="#231815" d="M38.287,27.673c-0.258,0.199-0.562,0.371-0.919,0.52c-0.354,0.148-0.791,0.223-1.305,0.223
		c-0.949,0-1.636-0.203-2.061-0.608c-0.426-0.405-0.717-0.974-0.875-1.705h-0.059c-0.08,0.178-0.188,0.399-0.326,0.667
		c-0.139,0.268-0.352,0.523-0.638,0.771c-0.287,0.246-0.667,0.455-1.142,0.623s-1.078,0.252-1.809,0.252
		c-0.83,0-1.493-0.095-1.987-0.283c-0.494-0.188-0.88-0.418-1.156-0.696c-0.277-0.276-0.46-0.588-0.549-0.935
		c-0.089-0.346-0.133-0.666-0.133-0.963c0-0.691,0.138-1.246,0.415-1.662c0.277-0.414,0.638-0.746,1.083-0.992
		c0.445-0.247,0.938-0.449,1.482-0.608c0.543-0.157,1.092-0.325,1.646-0.504c0.652-0.217,1.191-0.405,1.616-0.563
		c0.425-0.157,0.756-0.351,0.993-0.578s0.4-0.514,0.489-0.86c0.089-0.346,0.134-0.815,0.134-1.408c0-0.475-0.03-0.899-0.089-1.275
		c-0.059-0.375-0.168-0.697-0.326-0.964s-0.385-0.469-0.682-0.607c-0.296-0.138-0.692-0.208-1.186-0.208
		c-0.652,0-1.191,0.114-1.616,0.341c-0.425,0.228-0.637,0.598-0.637,1.112c0,0.336,0.029,0.667,0.089,0.994
		c0.059,0.326,0.089,0.568,0.089,0.727c0,0.277-0.099,0.509-0.296,0.697c-0.198,0.188-0.485,0.282-0.86,0.282
		c-0.652,0-1.058-0.119-1.216-0.356c-0.159-0.237-0.237-0.543-0.237-0.919c0-0.435,0.099-0.85,0.296-1.245
		c0.197-0.396,0.489-0.746,0.875-1.053c0.385-0.307,0.87-0.549,1.453-0.727c0.583-0.178,1.25-0.267,2.002-0.267
		c0.909,0,1.67,0.114,2.283,0.341c0.613,0.227,1.107,0.534,1.483,0.919c0.375,0.386,0.642,0.821,0.8,1.305
		c0.158,0.485,0.237,0.994,0.237,1.527v7.385c0,0.573,0.089,0.959,0.267,1.155c0.178,0.198,0.435,0.297,0.771,0.297
		c0.217,0,0.445-0.04,0.683-0.118c0.237-0.08,0.464-0.199,0.682-0.356L38.287,27.673z M33.097,20.735h-0.059
		c-0.04,0.257-0.366,0.515-0.979,0.771l-2.224,0.891c-0.633,0.257-1.117,0.618-1.453,1.083c-0.336,0.464-0.504,1.043-0.504,1.733
		c0,0.298,0.029,0.604,0.089,0.92c0.059,0.315,0.167,0.598,0.326,0.845c0.158,0.248,0.38,0.45,0.667,0.608s0.657,0.236,1.112,0.236
		c0.652,0,1.181-0.138,1.586-0.416c0.405-0.275,0.711-0.623,0.919-1.037c0.208-0.416,0.345-0.865,0.415-1.35
		c0.069-0.484,0.104-0.924,0.104-1.32L33.097,20.735L33.097,20.735z"/>
	<path fill="#231815" d="M37.842,15.279h7.176v0.415h-2.432l3.825,9.312l3.974-9.312h-2.432v-0.415h4.507v0.415h-1.603
		l-5.604,13.285l-5.396-13.285h-2.017L37.842,15.279L37.842,15.279z"/>
	<path fill="#231815" d="M56.968,20.646c0,0.198-0.005,0.4-0.015,0.607c-0.01,0.209-0.016,0.471-0.016,0.787
		c0,0.651,0.041,1.334,0.119,2.045c0.08,0.711,0.252,1.354,0.52,1.928c0.267,0.574,0.662,1.048,1.186,1.423
		C59.285,27.812,59.982,28,60.852,28c0.871,0,1.586-0.129,2.15-0.386s1.008-0.567,1.334-0.935c0.326-0.365,0.568-0.736,0.727-1.112
		c0.158-0.375,0.277-0.682,0.356-0.919l0.444,0.089c-0.059,0.218-0.172,0.529-0.34,0.935c-0.168,0.404-0.436,0.811-0.801,1.216
		s-0.859,0.761-1.482,1.067c-0.623,0.306-1.428,0.459-2.418,0.459c-0.988,0-1.902-0.158-2.742-0.475s-1.566-0.771-2.18-1.363
		c-0.613-0.594-1.088-1.301-1.424-2.121c-0.336-0.819-0.504-1.734-0.504-2.742c0-0.871,0.174-1.715,0.52-2.535
		s0.82-1.547,1.423-2.18c0.603-0.632,1.31-1.142,2.12-1.527c0.811-0.385,1.68-0.578,2.609-0.578c0.553,0,1.146,0.099,1.778,0.296
		c0.632,0.198,1.22,0.519,1.765,0.964c0.543,0.445,0.998,1.033,1.363,1.765c0.366,0.731,0.549,1.641,0.549,2.728L56.968,20.646
		L56.968,20.646z M63.077,20.231c0.04-0.276,0.06-0.534,0.06-0.771s0-0.484,0-0.742c0-0.672-0.064-1.225-0.193-1.661
		c-0.129-0.435-0.307-0.78-0.533-1.038c-0.229-0.257-0.504-0.44-0.831-0.549c-0.326-0.108-0.677-0.163-1.054-0.163
		c-0.672,0-1.226,0.134-1.66,0.4c-0.436,0.267-0.781,0.628-1.038,1.083s-0.45,0.979-0.578,1.572
		c-0.129,0.593-0.213,1.216-0.252,1.868L63.077,20.231L63.077,20.231z"/>
</g>
<g>
	<path d="M-19.819,33.166c-0.773,0.094-0.891,0.17-1.359,0.92c-0.486,0.797-0.867,1.447-1.412,2.426
		c-0.129,0.24-0.164,0.363-0.164,0.633v1.5c0,0.902,0.1,0.99,1.154,1.049v0.346h-3.1v-0.346c1.008-0.059,1.084-0.123,1.084-1.049
		v-1.488c0-0.193-0.041-0.293-0.24-0.65c-0.434-0.762-0.844-1.471-1.412-2.408c-0.434-0.75-0.557-0.867-1.23-0.932v-0.34h2.578v0.34
		c-0.814,0.105-0.779,0.234-0.551,0.609c0.463,0.855,1.008,1.746,1.512,2.584c0.434-0.762,0.99-1.781,1.307-2.467
		c0.258-0.568,0.234-0.633-0.645-0.727v-0.34h2.479V33.166z"/>
	<path d="M-18.085,35.035c1.342,0,2.396,1.09,2.396,2.479c0,1.828-1.33,2.654-2.396,2.654c-1.5,0-2.414-1.219-2.414-2.455
		c0-1.863,1.424-2.678,2.402-2.678H-18.085z M-19.55,37.361c0,1.395,0.627,2.414,1.6,2.414c0.727,0,1.312-0.551,1.312-2.033
		c0-1.236-0.551-2.314-1.564-2.314C-18.911,35.427-19.55,36.101-19.55,37.361z"/>
	<path d="M-9.624,39.775c-0.229,0.035-0.533,0.088-0.826,0.176c-0.281,0.076-0.562,0.152-0.738,0.217l-0.076-0.064v-0.791
		c-0.275,0.217-0.533,0.41-0.873,0.598c-0.322,0.182-0.533,0.258-0.826,0.258c-0.703,0-1.383-0.422-1.383-1.688v-2.109
		c0-0.621-0.094-0.674-0.357-0.727l-0.346-0.064v-0.293c0.24-0.012,0.486-0.047,0.779-0.07c0.299-0.053,0.604-0.094,0.744-0.141
		c-0.035,0.369-0.035,0.914-0.035,1.646v1.465c0,1.037,0.51,1.295,1.031,1.295c0.428,0,0.85-0.182,1.266-0.574v-2.537
		c0-0.621-0.111-0.674-0.492-0.727l-0.41-0.064v-0.293c0.293-0.012,0.697-0.047,1.002-0.076c0.305-0.047,0.551-0.088,0.691-0.135
		v3.721c0,0.568,0.1,0.633,0.533,0.656l0.316,0.012V39.775z"/>
	<path d="M-7.479,36.207c0.334-0.551,0.803-1.172,1.371-1.172c0.393,0,0.639,0.281,0.639,0.545c0,0.193-0.105,0.398-0.322,0.51
		c-0.135,0.041-0.217,0.035-0.293-0.023c-0.152-0.17-0.287-0.229-0.457-0.229c-0.316,0-0.721,0.381-0.961,1.049v1.969
		c0,0.738,0.047,0.814,0.926,0.867v0.316h-2.514v-0.316c0.732-0.053,0.809-0.129,0.809-0.861v-2.262c0-0.75-0.047-0.779-0.709-0.855
		v-0.287c0.51-0.088,0.99-0.229,1.488-0.457v1.207H-7.479z"/>
	<path d="M2.2,34.513c-0.111-0.469-0.152-0.662-0.305-0.902c-0.164-0.305-0.393-0.381-1.207-0.381h-0.949
		c-0.328,0-0.357,0.029-0.357,0.334v2.625h1.184c0.99,0,1.037-0.088,1.189-0.82h0.346v2.156H1.755
		c-0.152-0.785-0.199-0.891-1.189-0.891h-1.184v1.998c0,0.938,0.105,0.99,1.154,1.061v0.346h-2.994v-0.346
		c0.902-0.059,1.002-0.123,1.002-1.061V34.22c0-0.938-0.1-0.979-0.967-1.055v-0.34H2.44c0.006,0.445,0.064,1.119,0.105,1.652
		L2.2,34.513z"/>
	<path d="M6.671,40.167c-0.146,0-0.381-0.094-0.48-0.193c-0.164-0.164-0.229-0.328-0.275-0.51c-0.463,0.305-0.979,0.703-1.365,0.703
		c-0.756,0-1.307-0.639-1.307-1.371c0-0.521,0.293-0.914,0.926-1.107c0.674-0.229,1.488-0.545,1.729-0.721V36.81
		c0-0.82-0.416-1.277-0.979-1.277c-0.24,0-0.428,0.1-0.533,0.229c-0.141,0.164-0.229,0.381-0.34,0.721
		c-0.029,0.164-0.152,0.24-0.316,0.24c-0.17,0-0.457-0.211-0.457-0.469c0-0.164,0.164-0.293,0.369-0.445
		c0.275-0.211,0.984-0.645,1.635-0.773c0.316,0,0.662,0.1,0.891,0.305c0.369,0.316,0.492,0.762,0.492,1.324v2.104
		c0,0.498,0.182,0.674,0.393,0.674c0.129,0,0.293-0.076,0.398-0.129l0.123,0.311L6.671,40.167z M5.897,37.361
		c-0.252,0.123-0.85,0.381-1.102,0.492c-0.457,0.193-0.703,0.41-0.703,0.826c0,0.557,0.457,0.838,0.826,0.838
		c0.305,0,0.762-0.252,0.979-0.445V37.361z"/>
	<path d="M12.812,35.48c-0.609,0.053-0.691,0.164-0.996,0.826c-0.381,0.838-0.938,2.186-1.57,3.844H9.929
		c-0.475-1.318-0.979-2.561-1.523-3.867c-0.258-0.65-0.346-0.738-0.943-0.803v-0.316h2.209v0.316
		c-0.633,0.053-0.656,0.141-0.445,0.633c0.281,0.773,0.75,1.957,1.072,2.795c0.416-0.979,0.773-1.969,1.014-2.678
		c0.199-0.557,0.111-0.686-0.51-0.75v-0.316h2.01V35.48z"/>
	<path d="M15.425,35.035c1.342,0,2.396,1.09,2.396,2.479c0,1.828-1.33,2.654-2.396,2.654c-1.5,0-2.414-1.219-2.414-2.455
		c0-1.863,1.424-2.678,2.402-2.678H15.425z M13.96,37.361c0,1.395,0.627,2.414,1.6,2.414c0.727,0,1.312-0.551,1.312-2.033
		c0-1.236-0.551-2.314-1.564-2.314C14.599,35.427,13.96,36.101,13.96,37.361z"/>
	<path d="M20.101,36.207c0.334-0.551,0.803-1.172,1.371-1.172c0.393,0,0.639,0.281,0.639,0.545c0,0.193-0.105,0.398-0.322,0.51
		c-0.135,0.041-0.217,0.035-0.293-0.023c-0.152-0.17-0.287-0.229-0.457-0.229c-0.316,0-0.721,0.381-0.961,1.049v1.969
		c0,0.738,0.047,0.814,0.926,0.867v0.316h-2.514v-0.316c0.732-0.053,0.809-0.129,0.809-0.861v-2.262c0-0.75-0.047-0.779-0.709-0.855
		v-0.287c0.51-0.088,0.99-0.229,1.488-0.457v1.207H20.101z"/>
	<path d="M22.685,40.039v-0.316c0.721-0.053,0.809-0.129,0.809-0.867v-2.297c0-0.674-0.023-0.721-0.732-0.814v-0.287
		c0.568-0.105,1.055-0.24,1.512-0.457v3.855c0,0.738,0.076,0.814,0.809,0.867v0.316H22.685z M23.271,33.5
		c0-0.328,0.252-0.562,0.557-0.562c0.293,0,0.521,0.234,0.521,0.562c0,0.281-0.229,0.545-0.533,0.545
		C23.522,34.044,23.271,33.781,23.271,33.5z"/>
	<path d="M27.753,40.015c-0.205,0.111-0.393,0.152-0.51,0.152c-0.674,0-1.049-0.445-1.049-1.307v-3.24h-0.791l-0.047-0.129
		l0.305-0.328h0.533v-0.785l0.609-0.727l0.164,0.023v1.488h1.295c0.111,0.111,0.076,0.357-0.064,0.457h-1.23v2.854
		c0,0.891,0.369,1.066,0.656,1.066c0.293,0,0.574-0.123,0.715-0.199l0.111,0.293L27.753,40.015z"/>
	<path d="M32.933,39.148c-0.715,0.838-1.459,1.02-1.805,1.02c-1.33,0-2.133-1.107-2.133-2.367c0-0.762,0.264-1.459,0.721-1.963
		c0.445-0.498,1.043-0.803,1.594-0.803h0.012c0.926,0,1.664,0.814,1.664,1.705c0,0.252-0.041,0.328-0.234,0.381
		c-0.176,0.023-1.6,0.135-2.959,0.176c0.006,1.512,0.902,2.145,1.664,2.145c0.463,0,0.867-0.199,1.283-0.568L32.933,39.148z
		 M31.063,35.468c-0.521,0-1.025,0.469-1.23,1.348c0.65,0.012,1.295,0,1.98-0.018c0.217-0.012,0.281-0.076,0.281-0.24
		c0-0.586-0.404-1.09-1.02-1.09H31.063z"/>
	<path d="M36.114,40.039v-0.316c0.721-0.053,0.809-0.129,0.809-0.867v-2.297c0-0.674-0.023-0.721-0.732-0.814v-0.287
		c0.568-0.105,1.055-0.24,1.512-0.457v3.855c0,0.738,0.076,0.814,0.809,0.867v0.316H36.114z M36.7,33.5
		c0-0.328,0.252-0.562,0.557-0.562c0.293,0,0.521,0.234,0.521,0.562c0,0.281-0.229,0.545-0.533,0.545
		C36.952,34.044,36.7,33.781,36.7,33.5z"/>
	<path d="M41.979,36.505c-0.205-0.686-0.574-1.113-1.107-1.113c-0.445,0-0.738,0.34-0.738,0.797c0,0.521,0.463,0.773,0.943,0.955
		c0.826,0.34,1.412,0.738,1.412,1.5c0,1.002-0.943,1.523-1.822,1.523c-0.58,0-1.102-0.217-1.277-0.381
		c-0.088-0.164-0.193-0.914-0.193-1.307l0.346-0.053c0.188,0.75,0.656,1.359,1.33,1.359c0.41,0,0.826-0.322,0.826-0.814
		s-0.369-0.75-0.885-1.002c-0.738-0.334-1.412-0.674-1.412-1.523c0-0.762,0.656-1.412,1.664-1.412c0.457,0,0.75,0.1,0.979,0.193
		c0.111,0.252,0.217,0.885,0.264,1.189L41.979,36.505z"/>
	<path d="M52.017,40.039v-0.346c0.926-0.076,0.949-0.135,0.949-1.365l-0.053-4.5H52.89l-2.754,6.123h-0.229l-2.49-5.959h-0.023
		l-0.152,3.205c-0.053,0.961-0.064,1.406-0.053,1.816c0.035,0.527,0.316,0.604,1.043,0.668v0.357h-2.619v-0.357
		c0.639-0.064,0.861-0.164,0.943-0.668c0.059-0.369,0.135-0.838,0.211-2.01l0.152-2.309c0.094-1.412,0.064-1.436-0.961-1.529v-0.34
		h1.775l2.543,5.625l2.625-5.625h1.869v0.34c-0.99,0.094-1.078,0.082-1.031,1.289l0.1,3.873c0.029,1.23,0.076,1.289,1.055,1.365
		v0.346H52.017z"/>
	<path d="M60.226,35.48c-0.598,0.088-0.703,0.176-1.008,0.803c-0.275,0.58-0.609,1.494-1.383,3.34
		c-0.75,1.799-0.99,2.408-1.131,2.994c-0.064,0.205-0.211,0.264-0.363,0.264c-0.334,0-0.639-0.275-0.639-0.527
		c0-0.158,0.1-0.281,0.281-0.398c0.34-0.205,0.557-0.504,0.809-0.979c0.217-0.416,0.293-0.656,0.357-0.797
		c0.041-0.164,0.041-0.328-0.012-0.51c-0.434-1.189-0.891-2.49-1.254-3.352c-0.234-0.598-0.357-0.773-0.979-0.838v-0.316h2.18v0.316
		c-0.516,0.064-0.568,0.205-0.428,0.609l1.043,2.842c0.328-0.82,0.809-2.068,1.066-2.83c0.135-0.428,0.059-0.557-0.586-0.621v-0.316
		h2.045V35.48z"/>
	<path d="M67.591,34.513c-0.111-0.469-0.152-0.662-0.305-0.902c-0.164-0.305-0.393-0.381-1.207-0.381H65.13
		c-0.328,0-0.357,0.029-0.357,0.334v2.625h1.184c0.99,0,1.037-0.088,1.189-0.82h0.346v2.156h-0.346
		c-0.152-0.785-0.199-0.891-1.189-0.891h-1.184v1.998c0,0.938,0.105,0.99,1.154,1.061v0.346h-2.994v-0.346
		c0.902-0.059,1.002-0.123,1.002-1.061V34.22c0-0.938-0.1-0.979-0.967-1.055v-0.34h4.863c0.006,0.445,0.064,1.119,0.105,1.652
		L67.591,34.513z"/>
	<path d="M72.062,40.167c-0.146,0-0.381-0.094-0.48-0.193c-0.164-0.164-0.229-0.328-0.275-0.51
		c-0.463,0.305-0.979,0.703-1.365,0.703c-0.756,0-1.307-0.639-1.307-1.371c0-0.521,0.293-0.914,0.926-1.107
		c0.674-0.229,1.488-0.545,1.729-0.721V36.81c0-0.82-0.416-1.277-0.979-1.277c-0.24,0-0.428,0.1-0.533,0.229
		c-0.141,0.164-0.229,0.381-0.34,0.721c-0.029,0.164-0.152,0.24-0.316,0.24c-0.17,0-0.457-0.211-0.457-0.469
		c0-0.164,0.164-0.293,0.369-0.445c0.275-0.211,0.984-0.645,1.635-0.773c0.316,0,0.662,0.1,0.891,0.305
		c0.369,0.316,0.492,0.762,0.492,1.324v2.104c0,0.498,0.182,0.674,0.393,0.674c0.129,0,0.293-0.076,0.398-0.129l0.123,0.311
		L72.062,40.167z M71.288,37.361c-0.252,0.123-0.85,0.381-1.102,0.492c-0.457,0.193-0.703,0.41-0.703,0.826
		c0,0.557,0.457,0.838,0.826,0.838c0.305,0,0.762-0.252,0.979-0.445V37.361z"/>
	<path d="M78.202,35.48c-0.609,0.053-0.691,0.164-0.996,0.826c-0.381,0.838-0.938,2.186-1.57,3.844h-0.316
		c-0.475-1.318-0.979-2.561-1.523-3.867c-0.258-0.65-0.346-0.738-0.943-0.803v-0.316h2.209v0.316
		c-0.633,0.053-0.656,0.141-0.445,0.633c0.281,0.773,0.75,1.957,1.072,2.795c0.416-0.979,0.773-1.969,1.014-2.678
		c0.199-0.557,0.111-0.686-0.51-0.75v-0.316h2.01V35.48z"/>
	<path d="M80.815,35.035c1.342,0,2.396,1.09,2.396,2.479c0,1.828-1.33,2.654-2.396,2.654c-1.5,0-2.414-1.219-2.414-2.455
		c0-1.863,1.424-2.678,2.402-2.678H80.815z M79.351,37.361c0,1.395,0.627,2.414,1.6,2.414c0.727,0,1.312-0.551,1.312-2.033
		c0-1.236-0.551-2.314-1.564-2.314C79.989,35.427,79.351,36.101,79.351,37.361z"/>
	<path d="M85.491,36.207c0.334-0.551,0.803-1.172,1.371-1.172c0.393,0,0.639,0.281,0.639,0.545c0,0.193-0.105,0.398-0.322,0.51
		c-0.135,0.041-0.217,0.035-0.293-0.023c-0.152-0.17-0.287-0.229-0.457-0.229c-0.316,0-0.721,0.381-0.961,1.049v1.969
		c0,0.738,0.047,0.814,0.926,0.867v0.316H83.88v-0.316c0.732-0.053,0.809-0.129,0.809-0.861v-2.262c0-0.75-0.047-0.779-0.709-0.855
		v-0.287c0.51-0.088,0.99-0.229,1.488-0.457v1.207H85.491z"/>
	<path d="M88.075,40.039v-0.316c0.721-0.053,0.809-0.129,0.809-0.867v-2.297c0-0.674-0.023-0.721-0.732-0.814v-0.287
		c0.568-0.105,1.055-0.24,1.512-0.457v3.855c0,0.738,0.076,0.814,0.809,0.867v0.316H88.075z M88.661,33.5
		c0-0.328,0.252-0.562,0.557-0.562c0.293,0,0.521,0.234,0.521,0.562c0,0.281-0.229,0.545-0.533,0.545
		C88.913,34.044,88.661,33.781,88.661,33.5z"/>
	<path d="M93.144,40.015c-0.205,0.111-0.393,0.152-0.51,0.152c-0.674,0-1.049-0.445-1.049-1.307v-3.24h-0.791l-0.047-0.129
		l0.305-0.328h0.533v-0.785l0.609-0.727l0.164,0.023v1.488h1.295c0.111,0.111,0.076,0.357-0.064,0.457h-1.23v2.854
		c0,0.891,0.369,1.066,0.656,1.066c0.293,0,0.574-0.123,0.715-0.199l0.111,0.293L93.144,40.015z"/>
	<path d="M98.323,39.148c-0.715,0.838-1.459,1.02-1.805,1.02c-1.33,0-2.133-1.107-2.133-2.367c0-0.762,0.264-1.459,0.721-1.963
		c0.445-0.498,1.043-0.803,1.594-0.803h0.012c0.926,0,1.664,0.814,1.664,1.705c0,0.252-0.041,0.328-0.234,0.381
		c-0.176,0.023-1.6,0.135-2.959,0.176c0.006,1.512,0.902,2.145,1.664,2.145c0.463,0,0.867-0.199,1.283-0.568L98.323,39.148z
		 M96.454,35.468c-0.521,0-1.025,0.469-1.23,1.348c0.65,0.012,1.295,0,1.98-0.018c0.217-0.012,0.281-0.076,0.281-0.24
		c0-0.586-0.404-1.09-1.02-1.09H96.454z"/>
</g>
<g display="none">
	<path display="inline" d="M34.09,47.769c-0.387,0.047-0.445,0.085-0.68,0.46c-0.243,0.398-0.434,0.724-0.706,1.213
		c-0.064,0.12-0.082,0.182-0.082,0.316v0.75c0,0.451,0.05,0.495,0.577,0.524v0.173h-1.55v-0.173
		c0.504-0.029,0.542-0.062,0.542-0.524v-0.744c0-0.097-0.021-0.146-0.12-0.325c-0.217-0.381-0.422-0.735-0.706-1.204
		c-0.217-0.375-0.278-0.434-0.615-0.466v-0.17h1.289v0.17c-0.407,0.053-0.39,0.117-0.275,0.305c0.231,0.428,0.504,0.873,0.756,1.292
		c0.217-0.381,0.495-0.891,0.653-1.233c0.129-0.284,0.117-0.316-0.322-0.363v-0.17h1.239V47.769z"/>
	<path display="inline" d="M34.958,48.704c0.671,0,1.198,0.545,1.198,1.239c0,0.914-0.665,1.327-1.198,1.327
		c-0.75,0-1.207-0.609-1.207-1.228c0-0.932,0.712-1.339,1.201-1.339H34.958z M34.225,49.867c0,0.697,0.313,1.207,0.8,1.207
		c0.363,0,0.656-0.275,0.656-1.017c0-0.618-0.275-1.157-0.782-1.157C34.544,48.9,34.225,49.237,34.225,49.867z"/>
	<path display="inline" d="M39.188,51.074c-0.113,0.018-0.266,0.044-0.412,0.088c-0.141,0.038-0.281,0.076-0.369,0.108l-0.039-0.032
		v-0.396c-0.137,0.108-0.266,0.205-0.436,0.299c-0.162,0.091-0.268,0.129-0.414,0.129c-0.352,0-0.691-0.211-0.691-0.844v-1.055
		c0-0.311-0.047-0.337-0.178-0.363l-0.173-0.032V48.83c0.121-0.006,0.244-0.023,0.39-0.035c0.148-0.026,0.301-0.047,0.371-0.07
		c-0.018,0.185-0.018,0.457-0.018,0.823v0.732c0,0.519,0.256,0.647,0.516,0.647c0.215,0,0.426-0.091,0.633-0.287v-1.269
		c0-0.311-0.055-0.337-0.246-0.363l-0.205-0.032V48.83c0.146-0.006,0.35-0.023,0.502-0.038c0.152-0.023,0.275-0.044,0.346-0.067
		v1.86c0,0.284,0.049,0.316,0.266,0.328l0.158,0.006V51.074z"/>
	<path display="inline" d="M40.26,49.29c0.168-0.275,0.402-0.586,0.686-0.586c0.197,0,0.32,0.141,0.32,0.272
		c0,0.097-0.053,0.199-0.162,0.255c-0.066,0.021-0.107,0.018-0.146-0.012c-0.076-0.085-0.143-0.114-0.229-0.114
		c-0.158,0-0.359,0.19-0.48,0.524v0.984c0,0.369,0.023,0.407,0.463,0.434v0.158h-1.256v-0.158c0.365-0.026,0.404-0.064,0.404-0.431
		v-1.131c0-0.375-0.023-0.39-0.355-0.428v-0.144C39.76,48.871,40,48.8,40.248,48.686v0.604H40.26z"/>
	<path display="inline" d="M45.1,48.443c-0.055-0.234-0.076-0.331-0.152-0.451c-0.082-0.152-0.195-0.19-0.604-0.19h-0.475
		c-0.164,0-0.178,0.015-0.178,0.167v1.312h0.592c0.494,0,0.518-0.044,0.594-0.41h0.174v1.078h-0.174
		c-0.076-0.393-0.1-0.445-0.594-0.445h-0.592v0.999c0,0.469,0.053,0.495,0.576,0.53v0.173h-1.496v-0.173
		c0.451-0.029,0.5-0.062,0.5-0.53v-2.206c0-0.469-0.049-0.489-0.482-0.527v-0.17h2.432c0.002,0.223,0.031,0.56,0.053,0.826
		L45.1,48.443z"/>
	<path display="inline" d="M47.336,51.27c-0.074,0-0.191-0.047-0.24-0.097c-0.082-0.082-0.115-0.164-0.139-0.255
		c-0.23,0.152-0.488,0.352-0.682,0.352c-0.379,0-0.654-0.319-0.654-0.686c0-0.261,0.146-0.457,0.463-0.554
		c0.338-0.114,0.744-0.272,0.865-0.36v-0.079c0-0.41-0.209-0.639-0.49-0.639c-0.119,0-0.213,0.05-0.266,0.114
		c-0.07,0.082-0.115,0.19-0.17,0.36c-0.016,0.082-0.076,0.12-0.158,0.12c-0.086,0-0.229-0.105-0.229-0.234
		c0-0.082,0.082-0.146,0.184-0.223c0.139-0.105,0.492-0.322,0.818-0.387c0.158,0,0.33,0.05,0.445,0.152
		c0.184,0.158,0.246,0.381,0.246,0.662v1.052c0,0.249,0.09,0.337,0.195,0.337c0.064,0,0.146-0.038,0.199-0.064l0.062,0.155
		L47.336,51.27z M46.949,49.867c-0.127,0.062-0.426,0.19-0.551,0.246c-0.229,0.097-0.352,0.205-0.352,0.413
		c0,0.278,0.229,0.419,0.412,0.419c0.152,0,0.381-0.126,0.49-0.223V49.867z"/>
	<path display="inline" d="M50.406,48.926c-0.305,0.026-0.346,0.082-0.498,0.413c-0.191,0.419-0.469,1.093-0.785,1.922h-0.158
		c-0.238-0.659-0.49-1.28-0.762-1.934c-0.129-0.325-0.174-0.369-0.473-0.401v-0.158h1.105v0.158
		c-0.316,0.026-0.328,0.07-0.223,0.316c0.141,0.387,0.375,0.979,0.535,1.397c0.209-0.489,0.387-0.984,0.508-1.339
		c0.1-0.278,0.055-0.343-0.256-0.375v-0.158h1.006V48.926z"/>
	<path display="inline" d="M51.713,48.704c0.67,0,1.197,0.545,1.197,1.239c0,0.914-0.664,1.327-1.197,1.327
		c-0.75,0-1.207-0.609-1.207-1.228c0-0.932,0.711-1.339,1.201-1.339H51.713z M50.98,49.867c0,0.697,0.312,1.207,0.799,1.207
		c0.363,0,0.656-0.275,0.656-1.017c0-0.618-0.275-1.157-0.781-1.157C51.299,48.9,50.98,49.237,50.98,49.867z"/>
	<path display="inline" d="M54.051,49.29c0.166-0.275,0.4-0.586,0.686-0.586c0.195,0,0.318,0.141,0.318,0.272
		c0,0.097-0.053,0.199-0.16,0.255c-0.068,0.021-0.109,0.018-0.146-0.012c-0.076-0.085-0.145-0.114-0.229-0.114
		c-0.158,0-0.361,0.19-0.48,0.524v0.984c0,0.369,0.023,0.407,0.463,0.434v0.158h-1.258v-0.158c0.367-0.026,0.404-0.064,0.404-0.431
		v-1.131c0-0.375-0.023-0.39-0.354-0.428v-0.144c0.254-0.044,0.494-0.114,0.744-0.229v0.604H54.051z"/>
	<path display="inline" d="M55.342,51.206v-0.158c0.361-0.026,0.404-0.064,0.404-0.434v-1.148c0-0.337-0.012-0.36-0.365-0.407
		v-0.144c0.283-0.053,0.527-0.12,0.756-0.229v1.928c0,0.369,0.037,0.407,0.404,0.434v0.158H55.342z M55.635,47.936
		c0-0.164,0.127-0.281,0.279-0.281c0.146,0,0.26,0.117,0.26,0.281c0,0.141-0.113,0.272-0.266,0.272
		C55.762,48.208,55.635,48.077,55.635,47.936z"/>
	<path display="inline" d="M57.877,51.194c-0.104,0.056-0.197,0.076-0.256,0.076c-0.336,0-0.523-0.223-0.523-0.653v-1.62h-0.396
		l-0.023-0.064l0.152-0.164h0.268v-0.393l0.305-0.363l0.082,0.012v0.744h0.646c0.057,0.056,0.039,0.179-0.031,0.229h-0.615v1.427
		c0,0.445,0.184,0.533,0.328,0.533c0.146,0,0.287-0.062,0.357-0.1l0.055,0.146L57.877,51.194z"/>
	<path display="inline" d="M60.467,50.76c-0.357,0.419-0.73,0.51-0.902,0.51c-0.666,0-1.066-0.554-1.066-1.184
		c0-0.381,0.131-0.729,0.359-0.981c0.223-0.249,0.521-0.401,0.797-0.401h0.006c0.463,0,0.832,0.407,0.832,0.853
		c0,0.126-0.02,0.164-0.117,0.19c-0.088,0.012-0.799,0.067-1.479,0.088c0.002,0.756,0.451,1.072,0.832,1.072
		c0.23,0,0.434-0.1,0.641-0.284L60.467,50.76z M59.531,48.92c-0.26,0-0.512,0.234-0.615,0.674c0.326,0.006,0.648,0,0.99-0.009
		c0.109-0.006,0.141-0.038,0.141-0.12c0-0.293-0.201-0.545-0.51-0.545H59.531z"/>
	<path display="inline" d="M62.057,51.206v-0.158c0.361-0.026,0.404-0.064,0.404-0.434v-1.148c0-0.337-0.012-0.36-0.365-0.407
		v-0.144c0.283-0.053,0.527-0.12,0.756-0.229v1.928c0,0.369,0.037,0.407,0.404,0.434v0.158H62.057z M62.35,47.936
		c0-0.164,0.127-0.281,0.279-0.281c0.146,0,0.26,0.117,0.26,0.281c0,0.141-0.113,0.272-0.266,0.272
		C62.477,48.208,62.35,48.077,62.35,47.936z"/>
	<path display="inline" d="M64.99,49.439c-0.104-0.343-0.287-0.557-0.555-0.557c-0.223,0-0.369,0.17-0.369,0.398
		c0,0.261,0.232,0.387,0.473,0.478c0.412,0.17,0.705,0.369,0.705,0.75c0,0.501-0.471,0.762-0.91,0.762
		c-0.291,0-0.551-0.108-0.639-0.19c-0.045-0.082-0.098-0.457-0.098-0.653l0.174-0.026c0.094,0.375,0.328,0.68,0.664,0.68
		c0.205,0,0.414-0.161,0.414-0.407s-0.186-0.375-0.443-0.501c-0.369-0.167-0.705-0.337-0.705-0.762c0-0.381,0.328-0.706,0.832-0.706
		c0.229,0,0.375,0.05,0.488,0.097c0.057,0.126,0.109,0.442,0.133,0.595L64.99,49.439z"/>
	<path display="inline" d="M70.008,51.206v-0.173c0.463-0.038,0.475-0.067,0.475-0.683l-0.025-2.25h-0.012l-1.377,3.062h-0.115
		l-1.244-2.979h-0.012l-0.076,1.603c-0.027,0.48-0.033,0.703-0.027,0.908c0.018,0.264,0.158,0.302,0.521,0.334v0.179h-1.309v-0.179
		c0.318-0.032,0.43-0.082,0.471-0.334c0.029-0.185,0.068-0.419,0.105-1.005l0.076-1.154c0.047-0.706,0.033-0.718-0.48-0.765v-0.17
		h0.889l1.271,2.812l1.312-2.812h0.934v0.17c-0.494,0.047-0.539,0.041-0.516,0.645l0.051,1.937c0.014,0.615,0.037,0.645,0.527,0.683
		v0.173H70.008z"/>
	<path display="inline" d="M74.113,48.926c-0.299,0.044-0.352,0.088-0.504,0.401c-0.139,0.29-0.305,0.747-0.691,1.67
		c-0.375,0.899-0.496,1.204-0.566,1.497c-0.031,0.103-0.105,0.132-0.182,0.132c-0.166,0-0.318-0.138-0.318-0.264
		c0-0.079,0.049-0.141,0.141-0.199c0.17-0.103,0.277-0.252,0.404-0.489c0.107-0.208,0.146-0.328,0.178-0.398
		c0.021-0.082,0.021-0.164-0.006-0.255c-0.217-0.595-0.445-1.245-0.627-1.676c-0.117-0.299-0.178-0.387-0.488-0.419v-0.158h1.09
		v0.158c-0.258,0.032-0.285,0.103-0.215,0.305l0.521,1.421c0.164-0.41,0.404-1.034,0.533-1.415c0.068-0.214,0.029-0.278-0.293-0.311
		v-0.158h1.023V48.926z"/>
	<path display="inline" d="M77.795,48.443c-0.055-0.234-0.076-0.331-0.152-0.451c-0.082-0.152-0.195-0.19-0.604-0.19h-0.475
		c-0.164,0-0.178,0.015-0.178,0.167v1.312h0.592c0.494,0,0.518-0.044,0.594-0.41h0.174v1.078h-0.174
		c-0.076-0.393-0.1-0.445-0.594-0.445h-0.592v0.999c0,0.469,0.053,0.495,0.576,0.53v0.173h-1.496v-0.173
		c0.451-0.029,0.5-0.062,0.5-0.53v-2.206c0-0.469-0.049-0.489-0.482-0.527v-0.17h2.432c0.002,0.223,0.031,0.56,0.053,0.826
		L77.795,48.443z"/>
	<path display="inline" d="M80.031,51.27c-0.074,0-0.191-0.047-0.24-0.097c-0.082-0.082-0.115-0.164-0.139-0.255
		c-0.23,0.152-0.488,0.352-0.682,0.352c-0.379,0-0.654-0.319-0.654-0.686c0-0.261,0.146-0.457,0.463-0.554
		c0.338-0.114,0.744-0.272,0.865-0.36v-0.079c0-0.41-0.209-0.639-0.49-0.639c-0.119,0-0.213,0.05-0.266,0.114
		c-0.07,0.082-0.115,0.19-0.17,0.36c-0.016,0.082-0.076,0.12-0.158,0.12c-0.086,0-0.229-0.105-0.229-0.234
		c0-0.082,0.082-0.146,0.184-0.223c0.139-0.105,0.492-0.322,0.818-0.387c0.158,0,0.33,0.05,0.445,0.152
		c0.184,0.158,0.246,0.381,0.246,0.662v1.052c0,0.249,0.09,0.337,0.195,0.337c0.064,0,0.146-0.038,0.199-0.064l0.062,0.155
		L80.031,51.27z M79.645,49.867c-0.127,0.062-0.426,0.19-0.551,0.246c-0.229,0.097-0.352,0.205-0.352,0.413
		c0,0.278,0.229,0.419,0.412,0.419c0.152,0,0.381-0.126,0.49-0.223V49.867z"/>
	<path display="inline" d="M83.102,48.926c-0.305,0.026-0.346,0.082-0.498,0.413c-0.191,0.419-0.469,1.093-0.785,1.922H81.66
		c-0.238-0.659-0.49-1.28-0.762-1.934c-0.129-0.325-0.174-0.369-0.473-0.401v-0.158h1.105v0.158
		c-0.316,0.026-0.328,0.07-0.223,0.316c0.141,0.387,0.375,0.979,0.535,1.397c0.209-0.489,0.387-0.984,0.508-1.339
		c0.1-0.278,0.055-0.343-0.256-0.375v-0.158h1.006V48.926z"/>
	<path display="inline" d="M84.408,48.704c0.67,0,1.197,0.545,1.197,1.239c0,0.914-0.664,1.327-1.197,1.327
		c-0.75,0-1.207-0.609-1.207-1.228c0-0.932,0.711-1.339,1.201-1.339H84.408z M83.676,49.867c0,0.697,0.312,1.207,0.799,1.207
		c0.363,0,0.656-0.275,0.656-1.017c0-0.618-0.275-1.157-0.781-1.157C83.994,48.9,83.676,49.237,83.676,49.867z"/>
	<path display="inline" d="M86.746,49.29c0.166-0.275,0.4-0.586,0.686-0.586c0.195,0,0.318,0.141,0.318,0.272
		c0,0.097-0.053,0.199-0.16,0.255c-0.068,0.021-0.109,0.018-0.146-0.012c-0.076-0.085-0.145-0.114-0.229-0.114
		c-0.158,0-0.361,0.19-0.48,0.524v0.984c0,0.369,0.023,0.407,0.463,0.434v0.158h-1.258v-0.158c0.367-0.026,0.404-0.064,0.404-0.431
		v-1.131c0-0.375-0.023-0.39-0.354-0.428v-0.144c0.254-0.044,0.494-0.114,0.744-0.229v0.604H86.746z"/>
	<path display="inline" d="M88.037,51.206v-0.158c0.361-0.026,0.404-0.064,0.404-0.434v-1.148c0-0.337-0.012-0.36-0.365-0.407
		v-0.144c0.283-0.053,0.527-0.12,0.756-0.229v1.928c0,0.369,0.037,0.407,0.404,0.434v0.158H88.037z M88.33,47.936
		c0-0.164,0.127-0.281,0.279-0.281c0.146,0,0.26,0.117,0.26,0.281c0,0.141-0.113,0.272-0.266,0.272
		C88.457,48.208,88.33,48.077,88.33,47.936z"/>
	<path display="inline" d="M90.572,51.194c-0.104,0.056-0.197,0.076-0.256,0.076c-0.336,0-0.523-0.223-0.523-0.653v-1.62h-0.396
		l-0.023-0.064l0.152-0.164h0.268v-0.393l0.305-0.363l0.082,0.012v0.744h0.646c0.057,0.056,0.039,0.179-0.031,0.229H90.18v1.427
		c0,0.445,0.184,0.533,0.328,0.533c0.146,0,0.287-0.062,0.357-0.1l0.055,0.146L90.572,51.194z"/>
	<path display="inline" d="M93.162,50.76c-0.357,0.419-0.73,0.51-0.902,0.51c-0.666,0-1.066-0.554-1.066-1.184
		c0-0.381,0.131-0.729,0.359-0.981c0.223-0.249,0.521-0.401,0.797-0.401h0.006c0.463,0,0.832,0.407,0.832,0.853
		c0,0.126-0.02,0.164-0.117,0.19c-0.088,0.012-0.799,0.067-1.479,0.088c0.002,0.756,0.451,1.072,0.832,1.072
		c0.23,0,0.434-0.1,0.641-0.284L93.162,50.76z M92.227,48.92c-0.26,0-0.512,0.234-0.615,0.674c0.326,0.006,0.648,0,0.99-0.009
		c0.109-0.006,0.141-0.038,0.141-0.12c0-0.293-0.201-0.545-0.51-0.545H92.227z"/>
</g>
<g display="none">
	<path display="inline" d="M56.018,51.122h0.666v-4.104h-0.666v-0.084h3.432v1.038h-0.065c-0.052-0.155-0.108-0.293-0.168-0.41
		c-0.06-0.118-0.132-0.219-0.216-0.301s-0.184-0.143-0.301-0.183c-0.115-0.04-0.256-0.061-0.42-0.061h-0.996v1.944h0.391
		c0.132,0,0.244-0.012,0.336-0.036c0.092-0.023,0.171-0.068,0.237-0.135c0.065-0.066,0.122-0.156,0.168-0.27
		c0.046-0.114,0.091-0.262,0.135-0.441h0.065v1.866H58.55c-0.028-0.116-0.058-0.229-0.087-0.336
		c-0.029-0.108-0.072-0.204-0.126-0.288s-0.126-0.151-0.216-0.201s-0.207-0.075-0.352-0.075h-0.486v2.076h0.666v0.084h-1.932V51.122
		z"/>
	<path display="inline" d="M62.258,51.139c-0.053,0.04-0.114,0.075-0.186,0.105c-0.072,0.03-0.16,0.045-0.265,0.045
		c-0.192,0-0.331-0.041-0.417-0.123s-0.145-0.197-0.177-0.345h-0.013c-0.016,0.036-0.037,0.081-0.065,0.135
		s-0.071,0.106-0.129,0.156s-0.136,0.092-0.231,0.126s-0.218,0.051-0.365,0.051c-0.168,0-0.303-0.019-0.402-0.057
		s-0.178-0.085-0.234-0.142c-0.056-0.056-0.093-0.119-0.111-0.188c-0.018-0.07-0.026-0.136-0.026-0.195
		c0-0.14,0.028-0.252,0.084-0.336s0.129-0.151,0.219-0.201c0.091-0.05,0.19-0.091,0.3-0.123c0.11-0.032,0.221-0.065,0.334-0.102
		c0.131-0.044,0.24-0.082,0.326-0.114s0.153-0.071,0.201-0.117s0.081-0.104,0.1-0.174c0.018-0.07,0.026-0.165,0.026-0.285
		c0-0.096-0.006-0.182-0.019-0.258c-0.012-0.076-0.033-0.141-0.065-0.195c-0.032-0.054-0.078-0.095-0.138-0.123
		c-0.061-0.027-0.141-0.042-0.24-0.042c-0.132,0-0.241,0.023-0.327,0.069s-0.129,0.121-0.129,0.225c0,0.068,0.006,0.136,0.019,0.201
		c0.012,0.066,0.018,0.115,0.018,0.147c0,0.056-0.02,0.103-0.061,0.141c-0.039,0.038-0.098,0.058-0.174,0.058
		c-0.132,0-0.214-0.024-0.246-0.072c-0.031-0.048-0.048-0.11-0.048-0.187c0-0.088,0.021-0.172,0.06-0.252
		c0.041-0.08,0.1-0.15,0.178-0.213c0.078-0.062,0.176-0.11,0.294-0.146s0.253-0.055,0.405-0.055c0.184,0,0.338,0.023,0.462,0.069
		s0.224,0.108,0.3,0.186c0.076,0.078,0.13,0.166,0.162,0.265c0.031,0.098,0.048,0.201,0.048,0.309v1.494
		c0,0.116,0.019,0.194,0.054,0.234c0.036,0.04,0.088,0.06,0.156,0.06c0.044,0,0.09-0.008,0.139-0.023
		c0.047-0.017,0.094-0.04,0.137-0.072L62.258,51.139z M61.207,49.736h-0.012c-0.008,0.052-0.074,0.104-0.197,0.155l-0.45,0.181
		c-0.128,0.052-0.226,0.125-0.294,0.219s-0.102,0.211-0.102,0.351c0,0.061,0.006,0.122,0.018,0.187
		c0.012,0.063,0.033,0.121,0.066,0.171c0.031,0.05,0.076,0.091,0.135,0.123c0.058,0.032,0.133,0.048,0.225,0.048
		c0.132,0,0.238-0.027,0.32-0.084c0.082-0.056,0.145-0.126,0.187-0.21s0.069-0.175,0.084-0.272c0.015-0.099,0.021-0.188,0.021-0.268
		V49.736z"/>
	<path display="inline" d="M64.951,50.545c-0.012,0.044-0.034,0.107-0.068,0.189s-0.088,0.164-0.162,0.246s-0.174,0.153-0.3,0.216
		c-0.126,0.062-0.289,0.093-0.489,0.093c-0.152,0-0.31-0.024-0.474-0.072s-0.313-0.125-0.45-0.23
		c-0.136-0.106-0.247-0.245-0.333-0.417s-0.129-0.384-0.129-0.637c0-0.195,0.037-0.378,0.11-0.546
		c0.074-0.168,0.175-0.313,0.301-0.438s0.273-0.221,0.443-0.291s0.352-0.105,0.543-0.105c0.108,0,0.22,0.014,0.334,0.039
		c0.113,0.026,0.217,0.066,0.312,0.12c0.094,0.054,0.172,0.124,0.233,0.21c0.062,0.086,0.094,0.191,0.094,0.315
		c0,0.084-0.027,0.152-0.081,0.207c-0.054,0.054-0.132,0.081-0.231,0.081c-0.068,0-0.133-0.016-0.195-0.045
		c-0.062-0.03-0.092-0.081-0.092-0.153c0-0.056,0.014-0.124,0.041-0.204c0.028-0.08,0.043-0.146,0.043-0.198
		c0-0.092-0.047-0.163-0.139-0.213s-0.197-0.075-0.318-0.075c-0.088,0-0.179,0.012-0.272,0.033
		c-0.095,0.022-0.181,0.077-0.258,0.165c-0.078,0.088-0.142,0.22-0.192,0.396c-0.05,0.176-0.074,0.416-0.074,0.72
		c0,0.172,0.01,0.334,0.032,0.486c0.022,0.151,0.062,0.284,0.12,0.398s0.139,0.204,0.24,0.271c0.102,0.065,0.234,0.099,0.398,0.099
		c0.176,0,0.321-0.026,0.436-0.078c0.113-0.052,0.203-0.115,0.27-0.188c0.066-0.074,0.115-0.149,0.147-0.226
		s0.056-0.138,0.071-0.186L64.951,50.545z"/>
	<path display="inline" d="M66.037,49.717c0,0.04,0,0.081-0.002,0.123S66.031,49.936,66.031,50c0,0.132,0.008,0.271,0.024,0.414
		s0.051,0.274,0.104,0.39c0.055,0.116,0.135,0.213,0.24,0.288c0.105,0.076,0.247,0.114,0.424,0.114c0.176,0,0.32-0.026,0.435-0.078
		s0.204-0.115,0.271-0.188c0.065-0.074,0.114-0.149,0.146-0.226c0.031-0.076,0.056-0.138,0.072-0.186l0.09,0.018
		c-0.012,0.044-0.035,0.107-0.069,0.189s-0.088,0.164-0.162,0.246c-0.073,0.082-0.174,0.153-0.3,0.216
		c-0.126,0.062-0.289,0.093-0.489,0.093s-0.385-0.032-0.555-0.096c-0.17-0.064-0.317-0.156-0.44-0.276
		c-0.125-0.12-0.221-0.263-0.289-0.429s-0.102-0.352-0.102-0.556c0-0.176,0.035-0.347,0.105-0.513
		c0.069-0.166,0.166-0.312,0.287-0.44c0.123-0.128,0.266-0.231,0.43-0.31s0.34-0.117,0.527-0.117c0.112,0,0.232,0.021,0.36,0.061
		s0.247,0.104,0.356,0.194c0.11,0.091,0.203,0.21,0.276,0.357c0.074,0.148,0.111,0.332,0.111,0.552H66.037z M67.273,49.633
		c0.008-0.056,0.012-0.107,0.012-0.155c0-0.049,0-0.099,0-0.15c0-0.136-0.013-0.248-0.039-0.336
		c-0.025-0.088-0.062-0.158-0.107-0.21s-0.102-0.089-0.168-0.111c-0.066-0.021-0.137-0.033-0.213-0.033
		c-0.137,0-0.248,0.027-0.336,0.081c-0.088,0.055-0.158,0.127-0.211,0.22c-0.051,0.092-0.09,0.197-0.116,0.317
		s-0.043,0.246-0.052,0.378H67.273z"/>
</g>
</svg>
