<?xml version="1.0" encoding="UTF-8" standalone="no"?><!-- Generator: Gravit.io --><svg xmlns="http://www.w3.org/2000/svg" xmlns:xlink="http://www.w3.org/1999/xlink" style="isolation:isolate" viewBox="0 0 43 17" width="43pt" height="17pt"><defs><clipPath id="_clipPath_7ZiWxsU3JeB3i9o2ZRWmOWaYB26VUUSC"><rect width="43" height="17"/></clipPath></defs><g clip-path="url(#_clipPath_7ZiWxsU3JeB3i9o2ZRWmOWaYB26VUUSC)"><clipPath id="_clipPath_6GXdRTRtJeCIfTfI6fMycgMILiBbIHlf"><rect x="0" y="0" width="43" height="17" transform="matrix(1,0,0,1,0,0)" fill="rgb(255,255,255)"/></clipPath><g clip-path="url(#_clipPath_6GXdRTRtJeCIfTfI6fMycgMILiBbIHlf)"><g><clipPath id="_clipPath_L7Jzc2egEfI6povmTDbKstLWfNXOGiE9"><rect x="0" y="0" width="54" height="39" transform="matrix(1,0,0,1,0,0)" fill="rgb(255,255,255)"/></clipPath><g clip-path="url(#_clipPath_L7Jzc2egEfI6povmTDbKstLWfNXOGiE9)"><g><g><path d=" M 0.662 15.133 L 0.662 14.495 L 0.662 14.495 Q 1.498 14.495 1.839 14.396 L 1.839 14.396 L 1.839 14.396 Q 2.18 14.297 2.268 14.044 L 2.268 14.044 L 2.268 14.044 Q 2.356 13.791 2.356 13.175 L 2.356 13.175 L 2.356 2.571 L 2.356 2.571 Q 2.356 1.955 2.257 1.702 L 2.257 1.702 L 2.257 1.702 Q 2.158 1.449 1.817 1.35 L 1.817 1.35 L 1.817 1.35 Q 1.476 1.251 0.662 1.251 L 0.662 1.251 L 0.662 0.613 L 10.936 0.613 L 10.936 4.067 L 10.342 4.067 L 10.342 4.067 Q 10.144 2.923 9.858 2.373 L 9.858 2.373 L 9.858 2.373 Q 9.572 1.823 8.945 1.592 L 8.945 1.592 L 8.945 1.592 Q 8.318 1.361 7.086 1.361 L 7.086 1.361 L 5.194 1.361 L 5.194 1.361 Q 4.688 1.361 4.545 1.493 L 4.545 1.493 L 4.545 1.493 Q 4.402 1.625 4.402 2.153 L 4.402 2.153 L 4.402 7.477 L 6.998 7.477 L 6.998 7.477 Q 7.834 7.477 8.23 7.301 L 8.23 7.301 L 8.23 7.301 Q 8.626 7.125 8.78 6.773 L 8.78 6.773 L 8.78 6.773 Q 8.934 6.421 9.066 5.629 L 9.066 5.629 L 9.572 5.629 L 9.572 10.183 L 9.066 10.183 L 9.066 10.183 Q 8.934 9.391 8.78 9.039 L 8.78 9.039 L 8.78 9.039 Q 8.626 8.687 8.23 8.511 L 8.23 8.511 L 8.23 8.511 Q 7.834 8.335 6.998 8.335 L 6.998 8.335 L 4.402 8.335 L 4.402 13.175 L 4.402 13.175 Q 4.402 13.791 4.512 14.044 L 4.512 14.044 L 4.512 14.044 Q 4.622 14.297 5.029 14.396 L 5.029 14.396 L 5.029 14.396 Q 5.436 14.495 6.426 14.495 L 6.426 14.495 L 6.426 15.133 L 0.662 15.133 L 0.662 15.133 Z  M 22.002 14.231 L 22.156 14.781 L 22.156 14.781 Q 21.738 15.045 21.298 15.199 L 21.298 15.199 L 21.298 15.199 Q 20.858 15.353 20.154 15.353 L 20.154 15.353 L 20.154 15.353 Q 19.494 15.353 19.153 15.089 L 19.153 15.089 L 19.153 15.089 Q 18.812 14.825 18.746 13.945 L 18.746 13.945 L 18.746 13.945 Q 17.932 14.649 17.162 15.012 L 17.162 15.012 L 17.162 15.012 Q 16.392 15.375 15.446 15.375 L 15.446 15.375 L 15.446 15.375 Q 14.236 15.375 13.477 14.814 L 13.477 14.814 L 13.477 14.814 Q 12.718 14.253 12.718 13.175 L 12.718 13.175 L 12.718 13.175 Q 12.718 11.635 14.28 10.491 L 14.28 10.491 L 14.28 10.491 Q 15.842 9.347 18.746 8.885 L 18.746 8.885 L 18.746 7.609 L 18.746 7.609 Q 18.746 6.487 18.295 5.937 L 18.295 5.937 L 18.295 5.937 Q 17.844 5.387 16.744 5.387 L 16.744 5.387 L 16.744 5.387 Q 15.974 5.387 15.358 5.673 L 15.358 5.673 L 15.358 5.673 Q 14.742 5.959 14.742 6.245 L 14.742 6.245 L 14.742 6.245 Q 14.742 6.399 14.951 6.564 L 14.951 6.564 L 14.951 6.564 Q 15.16 6.729 15.281 6.894 L 15.281 6.894 L 15.281 6.894 Q 15.402 7.059 15.402 7.389 L 15.402 7.389 L 15.402 7.389 Q 15.402 7.851 15.138 8.126 L 15.138 8.126 L 15.138 8.126 Q 14.874 8.401 14.39 8.401 L 14.39 8.401 L 14.39 8.401 Q 13.884 8.401 13.587 8.093 L 13.587 8.093 L 13.587 8.093 Q 13.29 7.785 13.29 7.235 L 13.29 7.235 L 13.29 7.235 Q 13.29 6.553 13.741 5.959 L 13.741 5.959 L 13.741 5.959 Q 14.192 5.365 15.105 4.991 L 15.105 4.991 L 15.105 4.991 Q 16.018 4.617 17.338 4.617 L 17.338 4.617 L 17.338 4.617 Q 19.01 4.617 19.802 5.299 L 19.802 5.299 L 19.802 5.299 Q 20.594 5.981 20.594 7.675 L 20.594 7.675 L 20.594 12.889 L 20.594 12.889 Q 20.594 13.747 20.781 14.066 L 20.781 14.066 L 20.781 14.066 Q 20.968 14.385 21.386 14.385 L 21.386 14.385 L 21.386 14.385 Q 21.65 14.385 22.002 14.231 L 22.002 14.231 L 22.002 14.231 Z  M 14.698 12.647 L 14.698 12.647 Q 14.698 13.417 15.138 13.802 L 15.138 13.802 L 15.138 13.802 Q 15.578 14.187 16.414 14.187 L 16.414 14.187 L 16.414 14.187 Q 17.03 14.187 17.591 13.923 L 17.591 13.923 L 17.591 13.923 Q 18.152 13.659 18.746 13.219 L 18.746 13.219 L 18.746 9.589 L 18.746 9.589 Q 16.7 10.029 15.699 10.766 L 15.699 10.766 L 15.699 10.766 Q 14.698 11.503 14.698 12.647 L 14.698 12.647 L 14.698 12.647 Z  M 27.084 15.133 L 23.784 6.377 L 23.784 6.377 Q 23.564 5.827 23.289 5.651 L 23.289 5.651 L 23.289 5.651 Q 23.014 5.475 22.31 5.475 L 22.31 5.475 L 22.31 4.837 L 26.886 4.837 L 26.886 5.475 L 26.006 5.475 L 26.006 5.475 Q 25.588 5.475 25.588 5.849 L 25.588 5.849 L 25.588 5.849 Q 25.588 5.981 25.654 6.157 L 25.654 6.157 L 28.162 13.043 L 28.228 13.043 L 30.714 6.135 L 30.714 6.135 Q 30.758 5.959 30.758 5.871 L 30.758 5.871 L 30.758 5.871 Q 30.758 5.475 30.384 5.475 L 30.384 5.475 L 29.416 5.475 L 29.416 4.837 L 33.112 4.837 L 33.112 5.475 L 33.112 5.475 Q 32.408 5.475 32.122 5.662 L 32.122 5.662 L 32.122 5.662 Q 31.836 5.849 31.616 6.377 L 31.616 6.377 L 28.14 15.133 L 27.084 15.133 L 27.084 15.133 Z  M 42.462 9.875 L 42.462 10.073 L 35.466 10.073 L 35.466 10.073 Q 35.51 12.119 36.203 13.307 L 36.203 13.307 L 36.203 13.307 Q 36.896 14.495 38.656 14.495 L 38.656 14.495 L 38.656 14.495 Q 39.932 14.495 40.68 13.835 L 40.68 13.835 L 40.68 13.835 Q 41.428 13.175 41.78 12.141 L 41.78 12.141 L 42.396 12.405 L 42.396 12.405 Q 41.934 13.747 40.966 14.561 L 40.966 14.561 L 40.966 14.561 Q 39.998 15.375 38.084 15.375 L 38.084 15.375 L 38.084 15.375 Q 35.73 15.375 34.575 14.011 L 34.575 14.011 L 34.575 14.011 Q 33.42 12.647 33.42 10.095 L 33.42 10.095 L 33.42 10.095 Q 33.42 7.477 34.608 6.036 L 34.608 6.036 L 34.608 6.036 Q 35.796 4.595 38.106 4.595 L 38.106 4.595 L 38.106 4.595 Q 42.462 4.595 42.462 9.875 L 42.462 9.875 L 42.462 9.875 Z  M 35.466 9.369 L 40.416 9.369 L 40.416 9.369 Q 40.416 7.279 39.91 6.278 L 39.91 6.278 L 39.91 6.278 Q 39.404 5.277 38.128 5.277 L 38.128 5.277 L 38.128 5.277 Q 36.83 5.277 36.192 6.3 L 36.192 6.3 L 36.192 6.3 Q 35.554 7.323 35.466 9.369 L 35.466 9.369 L 35.466 9.369 Z " fill-rule="evenodd" fill="rgb(0,0,0)"/></g></g></g></g></g></g></svg>